<?xml version="1.0" encoding="UTF-8"?>
<!DOCTYPE svg PUBLIC "-//W3C//DTD SVG 1.1//EN" "http://www.w3.org/Graphics/SVG/1.1/DTD/svg11.dtd">
<!-- Creator: CorelDRAW X7 -->
<svg xmlns="http://www.w3.org/2000/svg" xml:space="preserve" width="86mm" height="86mm" version="1.1" style="shape-rendering:geometricPrecision; text-rendering:geometricPrecision; image-rendering:optimizeQuality; fill-rule:evenodd; clip-rule:evenodd"
viewBox="0 0 86000 86000"
 xmlns:xlink="http://www.w3.org/1999/xlink">
 <defs>
  <style type="text/css">
   <![CDATA[
    .str0 {stroke:#C82333;stroke-width:250}
    .fil0 {fill:#DC3545}
   ]]>
  </style>
 </defs>
 <g id="Camada_x0020_1">
  <metadata id="CorelCorpID_0Corel-Layer"/>
  <path class="fil0 str0" d="M65696 59424c0,1692 290,2900 870,3625 580,725 1402,1088 2465,1088 629,0 1305,-48 2031,-145 725,-97 1546,-314 2465,-653l653 4568c-774,387 -1849,701 -3227,943 -1378,242 -2574,363 -3589,363 -2176,0 -3964,-617 -5366,-1849 -1402,-1233 -2103,-3324 -2103,-6273l0 -43506 5801 0 0 41839zm-40860 -10369l14865 0 -5632 -15445 -1801 -7686 -72 0 -1801 7831 -5559 15300zm16666 5221l-18612 0 -5051 14067 -6018 0 19215 -51555 2755 0 19288 51555 -6381 0 -5196 -14067z"/>
 </g>
</svg>
