<?xml version="1.0" encoding="UTF-8"?>
<!DOCTYPE svg PUBLIC "-//W3C//DTD SVG 1.1//EN" "http://www.w3.org/Graphics/SVG/1.1/DTD/svg11.dtd">
<!-- Creator: CorelDRAW X7 -->
<svg xmlns="http://www.w3.org/2000/svg" xml:space="preserve" width="90mm" height="90mm" version="1.1" style="shape-rendering:geometricPrecision; text-rendering:geometricPrecision; image-rendering:optimizeQuality; fill-rule:evenodd; clip-rule:evenodd"
viewBox="0 0 90000 90000"
 xmlns:xlink="http://www.w3.org/1999/xlink">
 <defs>
  <style type="text/css">
   <![CDATA[
    .str0 {stroke:#C82333;stroke-width:250}
    .fil0 {fill:#DC3545}
   ]]>
  </style>
 </defs>
 <g id="Camada_x0020_1">
  <metadata id="CorelCorpID_0Corel-Layer"/>
  <path class="fil0 str0" d="M67187 61386c0,1692 290,2900 870,3625 580,725 1402,1088 2465,1088 629,0 1305,-48 2030,-145 725,-97 1547,-314 2466,-653l652 4568c-773,387 -1849,701 -3226,943 -1378,242 -2575,363 -3590,363 -2175,0 -3964,-617 -5365,-1849 -1402,-1233 -2103,-3324 -2103,-6273l0 -43506 5801 0 0 41839zm-40860 -10369l14865 0 -5632 -15445 -1801 -7686 -72 0 -1801 7831 -5559 15300zm16665 5221l-18611 0 -5051 14067 -6019 0 19216 -51555 2755 0 19288 51555 -6381 0 -5197 -14067z"/>
 </g>
</svg>
