<?xml version="1.0" encoding="UTF-8"?>
<!DOCTYPE svg PUBLIC "-//W3C//DTD SVG 1.1//EN" "http://www.w3.org/Graphics/SVG/1.1/DTD/svg11.dtd">
<!-- Creator: CorelDRAW X7 -->
<svg xmlns="http://www.w3.org/2000/svg" xml:space="preserve" width="90mm" height="90mm" version="1.1" style="shape-rendering:geometricPrecision; text-rendering:geometricPrecision; image-rendering:optimizeQuality; fill-rule:evenodd; clip-rule:evenodd"
viewBox="0 0 90000 90000"
 xmlns:xlink="http://www.w3.org/1999/xlink">
 <defs>
  <style type="text/css">
   <![CDATA[
    .str0 {stroke:#C82333;stroke-width:250}
    .fil0 {fill:#DC3545}
   ]]>
  </style>
 </defs>
 <g id="Camada_x0020_1">
  <metadata id="CorelCorpID_0Corel-Layer"/>
  <path class="fil0 str0" d="M54207 33614l5656 0 0 -7178 5801 -1668 0 8846 9861 0 0 5076 -9861 0 0 20085c0,2514 314,4291 943,5330 628,1039 1692,1559 3190,1559 1257,0 2320,-133 3191,-399 870,-266 1837,-616 2900,-1051l1305 4423c-1305,628 -2731,1136 -4278,1522 -1547,387 -3215,581 -5003,581 -2949,0 -5028,-834 -6236,-2502 -1209,-1668 -1813,-4459 -1813,-8375l0 -21173 -5656 0 0 -5076zm-28533 16968l14865 0 -5632 -15445 -1800 -7686 -73 0 -1800 7831 -5560 15300zm16666 5220l-18611 0 -5052 14067 -6018 0 19215 -51555 2756 0 19287 51555 -6381 0 -5196 -14067z"/>
 </g>
</svg>
