<?xml version="1.0" encoding="UTF-8"?>
<!DOCTYPE svg PUBLIC "-//W3C//DTD SVG 1.1//EN" "http://www.w3.org/Graphics/SVG/1.1/DTD/svg11.dtd">
<!-- Creator: CorelDRAW X7 -->
<svg xmlns="http://www.w3.org/2000/svg" xml:space="preserve" width="90mm" height="90mm" version="1.1" style="shape-rendering:geometricPrecision; text-rendering:geometricPrecision; image-rendering:optimizeQuality; fill-rule:evenodd; clip-rule:evenodd"
viewBox="0 0 90000 90000"
 xmlns:xlink="http://www.w3.org/1999/xlink">
 <defs>
  <style type="text/css">
   <![CDATA[
    .str0 {stroke:#C82333;stroke-width:250}
    .fil0 {fill:#DC3545}
   ]]>
  </style>
 </defs>
 <g id="Camada_x0020_1">
  <metadata id="CorelCorpID_0Corel-Layer"/>
  <path class="fil0 str0" d="M61470 36624c-2852,0 -5136,749 -6852,2247 -1716,1499 -2743,4061 -3081,7686l17982 0c0,-3673 -701,-6248 -2103,-7722 -1402,-1474 -3383,-2211 -5946,-2211zm12472 29149c-1450,1160 -3275,2078 -5474,2755 -2200,677 -4532,1015 -6998,1015 -2755,0 -5148,-447 -7178,-1341 -2030,-894 -3698,-2175 -5003,-3843 -1305,-1668 -2272,-3662 -2901,-5982 -628,-2321 -942,-4931 -942,-7831 0,-6188 1377,-10901 4133,-14140 2755,-3239 6695,-4858 11819,-4858 1644,0 3287,181 4931,544 1643,362 3118,1051 4423,2066 1305,1015 2369,2453 3190,4315 822,1861 1233,4314 1233,7359 0,1596 -145,3360 -435,5294l-23276 0c0,2127 218,4012 653,5655 435,1644 1111,3034 2030,4170 918,1136 2115,2006 3589,2610 1475,604 3275,907 5402,907 1644,0 3287,-291 4931,-871 1644,-580 2876,-1256 3698,-2030l2175 4206zm-53150 -22406l17040 0 0 22333c-773,580 -1704,1112 -2792,1595 -1087,484 -2247,895 -3480,1233 -1233,339 -2514,592 -3843,761 -1329,170 -2623,254 -3879,254 -3239,0 -6212,-519 -8919,-1559 -2707,-1039 -5052,-2634 -7034,-4785 -1982,-2152 -3529,-4883 -4640,-8194 -1112,-3311 -1668,-7215 -1668,-11711 0,-4689 677,-8701 2030,-12036 1354,-3336 3118,-6055 5293,-8158 2176,-2103 4617,-3637 7324,-4604 2707,-967 5414,-1450 8121,-1450 2901,0 5293,157 7179,471 1885,314 3480,737 4785,1269l-1522 5366c-2321,-1160 -5632,-1741 -9934,-1741 -2031,0 -4049,351 -6055,1052 -2006,701 -3807,1873 -5402,3517 -1595,1643 -2900,3794 -3916,6453 -1015,2659 -1522,5946 -1522,9861 0,3578 411,6671 1232,9282 822,2610 1958,4773 3433,6490 1474,1716 3238,2997 5317,3843 2067,846 4339,1268 6792,1268 3082,0 5716,-604 7879,-1812l0 -14140 -11819 -1450 0 -3408z"/>
 </g>
</svg>
