<?xml version="1.0" encoding="UTF-8"?>
<!DOCTYPE svg PUBLIC "-//W3C//DTD SVG 1.1//EN" "http://www.w3.org/Graphics/SVG/1.1/DTD/svg11.dtd">
<!-- Creator: CorelDRAW X7 -->
<svg xmlns="http://www.w3.org/2000/svg" xml:space="preserve" width="86mm" height="86mm" version="1.1" style="shape-rendering:geometricPrecision; text-rendering:geometricPrecision; image-rendering:optimizeQuality; fill-rule:evenodd; clip-rule:evenodd"
viewBox="0 0 86000 86000"
 xmlns:xlink="http://www.w3.org/1999/xlink">
 <defs>
  <style type="text/css">
   <![CDATA[
    .str0 {stroke:#C82333;stroke-width:250}
    .fil0 {fill:#DC3545}
   ]]>
  </style>
 </defs>
 <g id="Camada_x0020_1">
  <metadata id="CorelCorpID_0Corel-Layer"/>
  <path class="fil0 str0" d="M66095 36329c-2852,0 -5136,749 -6853,2248 -1716,1498 -2743,4061 -3081,7686l17982 0c0,-3674 -701,-6248 -2102,-7722 -1402,-1475 -3384,-2212 -5946,-2212zm12471 29149c-1450,1160 -3275,2079 -5474,2756 -2200,676 -4532,1015 -6997,1015 -2756,0 -5149,-447 -7179,-1342 -2030,-894 -3698,-2175 -5003,-3843 -1305,-1667 -2272,-3661 -2900,-5982 -629,-2320 -943,-4930 -943,-7831 0,-6187 1378,-10901 4133,-14139 2755,-3239 6695,-4859 11819,-4859 1644,0 3287,182 4931,544 1643,363 3118,1052 4423,2067 1305,1015 2369,2453 3190,4314 822,1861 1233,4315 1233,7360 0,1595 -145,3360 -435,5293l-23276 0c0,2127 218,4012 653,5656 435,1644 1112,3033 2030,4169 919,1136 2115,2007 3589,2611 1475,604 3275,906 5402,906 1644,0 3288,-290 4931,-870 1644,-580 2876,-1257 3698,-2030l2175 4205zm-53150 -22405l17040 0 0 22333c-773,580 -1704,1112 -2791,1595 -1088,483 -2248,894 -3481,1233 -1233,338 -2514,592 -3843,761 -1329,169 -2622,254 -3879,254 -3239,0 -6212,-520 -8919,-1559 -2707,-1039 -5052,-2635 -7034,-4786 -1982,-2151 -3528,-4882 -4640,-8193 -1112,-3312 -1668,-7215 -1668,-11711 0,-4689 677,-8701 2030,-12037 1354,-3335 3118,-6054 5294,-8157 2175,-2103 4616,-3638 7323,-4605 2707,-966 5414,-1450 8121,-1450 2901,0 5294,157 7179,472 1885,314 3480,737 4786,1269l-1523 5365c-2320,-1160 -5632,-1740 -9934,-1740 -2030,0 -4049,351 -6055,1051 -2006,701 -3807,1874 -5402,3517 -1595,1644 -2900,3795 -3915,6454 -1015,2658 -1523,5946 -1523,9861 0,3577 411,6671 1233,9281 821,2611 1957,4774 3432,6490 1474,1716 3239,2997 5317,3843 2067,846 4339,1269 6792,1269 3082,0 5716,-604 7880,-1813l0 -14139 -11820 -1450 0 -3408z"/>
 </g>
</svg>
