<?xml version="1.0" encoding="UTF-8"?>
<!DOCTYPE svg PUBLIC "-//W3C//DTD SVG 1.1//EN" "http://www.w3.org/Graphics/SVG/1.1/DTD/svg11.dtd">
<!-- Creator: CorelDRAW X7 -->
<svg xmlns="http://www.w3.org/2000/svg" xml:space="preserve" width="416mm" height="143mm" version="1.1" style="shape-rendering:geometricPrecision; text-rendering:geometricPrecision; image-rendering:optimizeQuality; fill-rule:evenodd; clip-rule:evenodd"
viewBox="0 0 416000 143000"
 xmlns:xlink="http://www.w3.org/1999/xlink">
 <defs>
  <style type="text/css">
   <![CDATA[
    .str1 {stroke:#727376;stroke-width:250}
    .str0 {stroke:#727376;stroke-width:200}
    .fil0 {fill:none}
   ]]>
  </style>
 </defs>
 <g id="Camada_x0020_1">
  <metadata id="CorelCorpID_0Corel-Layer"/>
  <g id="_837926688">
   <path class="fil0 str0" d="M132411 106754c6719,7645 3683,4191 10402,11836 25379,-30247 62171,-32254 106092,-47669 -26063,-12279 -74628,-36372 -95479,-65679 -2954,7182 2043,87326 -42,131344 16680,-28264 130648,-56173 131343,-65672 -5444,-7761 -90439,-41364 -100894,-65846 -7645,22473 -9145,104412 -10111,131518 4228,-21405 8079,-23235 11675,-31955 3129,-7898 -19775,-12105 -24673,-12337 -4377,-232 1216,-29713 1216,-29713 -12395,26296 -14702,33516 -29529,44173z"/>
   <path class="fil0 str0" d="M132501 106706c-5907,4453 -7774,966 -7038,-3265"/>
   <line class="fil0 str0" x1="132716" y1="107147" x2="132106" y2= "106361" />
  </g>
  <path class="fil0 str1" d="M42622 81239c0,2524 -477,4758 -1431,6689 -954,1931 -2234,3525 -3851,4769 -1907,1501 -3955,2571 -6130,3188 -2187,628 -5003,942 -8446,942l-14553 0 0 -50744 13460 0c3617,0 6328,116 8131,361 1803,232 3537,791 5200,1675 1815,977 3141,2257 3990,3839 838,1570 1257,3432 1257,5560 0,2385 -628,4514 -1885,6399 -1268,1884 -3013,3362 -5235,4432l0 279c3013,814 5351,2315 7015,4479 1652,2175 2478,4886 2478,8132zm-9423 -22708c0,-1210 -209,-2269 -617,-3153 -407,-896 -1058,-1594 -1966,-2117 -1081,-605 -2303,-977 -3641,-1117 -1338,-128 -3176,-198 -5537,-198l-6457 0 0 14728 7643 0c2118,0 3665,-105 4665,-326 989,-209 2025,-651 3083,-1326 1024,-652 1757,-1512 2187,-2571 431,-1059 640,-2362 640,-3920zm2373 22940c0,-1896 -267,-3455 -814,-4688 -547,-1233 -1640,-2280 -3292,-3129 -1071,-570 -2234,-931 -3490,-1094 -1257,-151 -3037,-232 -5352,-232l-7643 0 0 18636 5468 0c2943,0 5270,-140 6968,-407 1699,-268 3199,-849 4491,-1722 1268,-884 2187,-1885 2780,-3001 593,-1117 884,-2571 884,-4363zm20184 15356l-6422 0 0 -38041 6422 0 0 38041zm488 -44462l-7329 0 0 -6631 7329 0 0 6631zm20510 45230c-3502,0 -6236,-989 -8190,-2978 -1954,-1978 -2932,-5119 -2932,-9400l0 -21056 -4327 0 0 -5375 4327 0 0 -10958 6422 0 0 10958 11796 0 0 5375 -11796 0 0 18078c0,1931 35,3420 105,4456 69,1047 325,2024 779,2931 384,791 1012,1396 1873,1792 872,395 2036,593 3513,593 1047,0 2059,-163 3036,-477 978,-314 1687,-570 2118,-779l372 0 0 5746c-1210,349 -2431,617 -3664,803 -1245,198 -2385,291 -3432,291zm28350 70c-6073,0 -10796,-1710 -14158,-5119 -3362,-3408 -5037,-8260 -5037,-14541 0,-6189 1629,-11110 4886,-14775 3246,-3664 7503,-5491 12762,-5491 2373,0 4467,338 6282,1024 1826,675 3420,1745 4781,3199 1372,1454 2419,3223 3141,5328 733,2094 1093,4665 1093,7702l0 3478 -26454 0c0,4409 1117,7782 3351,10109 2233,2338 5328,3502 9271,3502 1408,0 2804,-163 4153,-477 1362,-314 2583,-733 3677,-1233 1163,-524 2152,-1024 2943,-1513 802,-488 1466,-954 1989,-1384l372 0 0 6992c-756,290 -1687,663 -2803,1105 -1117,442 -2118,791 -3002,1035 -1256,337 -2385,605 -3397,791 -1012,175 -2303,268 -3850,268zm7538 -24081c-46,-1722 -256,-3211 -616,-4456 -361,-1244 -896,-2303 -1571,-3164 -756,-942 -1722,-1675 -2897,-2175 -1175,-500 -2629,-745 -4374,-745 -1710,0 -3164,256 -4362,768 -1198,512 -2292,1245 -3269,2222 -966,1000 -1687,2106 -2199,3315 -500,1210 -814,2630 -954,4235l20242 0zm22976 24081c-2536,0 -4910,-338 -7120,-1024 -2222,-686 -4048,-1408 -5502,-2187l0 -7189 337 0c547,430 1187,919 1919,1442 733,535 1711,1082 2932,1652 1082,512 2269,954 3571,1349 1303,384 2653,582 4049,582 1012,0 2094,-116 3245,-361 1152,-232 2013,-535 2583,-907 791,-523 1361,-1082 1710,-1675 349,-593 524,-1489 524,-2676 0,-1524 -408,-2675 -1222,-3455 -814,-768 -2268,-1419 -4339,-1943 -814,-209 -1885,-442 -3211,-698 -1314,-267 -2536,-558 -3653,-872 -2896,-838 -5014,-2141 -6328,-3897 -1315,-1757 -1978,-3886 -1978,-6387 0,-3420 1292,-6212 3886,-8376 2594,-2152 6026,-3234 10318,-3234 2118,0 4246,268 6375,791 2141,524 3932,1175 5387,1978l0 6864 -338 0c-1628,-1315 -3443,-2350 -5444,-3118 -2001,-756 -4025,-1140 -6061,-1140 -2094,0 -3874,442 -5316,1338 -1455,884 -2176,2222 -2176,4025 0,1593 431,2780 1280,3571 849,780 2210,1419 4083,1931 954,245 2013,489 3188,722 1163,244 2396,523 3699,837 2815,710 4932,1873 6352,3502 1419,1640 2129,3862 2129,6677 0,1629 -326,3188 -966,4642 -652,1466 -1594,2722 -2850,3769 -1361,1128 -2897,1989 -4607,2583 -1710,593 -3862,884 -6456,884zm33259 -838l0 -44741 -17031 0 0 -6003 40832 0 0 6003 -17031 0 0 44741 -6770 0zm58282 0l-6421 0 0 -21673c0,-1745 -82,-3373 -256,-4886 -175,-1512 -489,-2722 -966,-3629 -523,-954 -1256,-1664 -2187,-2129 -930,-465 -2198,-698 -3815,-698 -1583,0 -3223,430 -4921,1280 -1687,849 -3339,1954 -4956,3315l0 28420 -6422 0 0 -53047 6422 0 0 19241c1908,-1710 3792,-3013 5654,-3920 1873,-908 3839,-1362 5898,-1362 3757,0 6689,1234 8794,3700 2118,2454 3176,6026 3176,10702l0 24686zm25524 838c-6073,0 -10796,-1710 -14158,-5119 -3362,-3408 -5037,-8260 -5037,-14541 0,-6189 1628,-11110 4886,-14775 3245,-3664 7503,-5491 12761,-5491 2373,0 4467,338 6282,1024 1827,675 3420,1745 4781,3199 1373,1454 2420,3223 3141,5328 733,2094 1094,4665 1094,7702l0 3478 -26454 0c0,4409 1117,7782 3350,10109 2234,2338 5328,3502 9272,3502 1408,0 2804,-163 4153,-477 1361,-314 2583,-733 3676,-1233 1164,-524 2152,-1024 2943,-1513 803,-488 1466,-954 1990,-1384l372 0 0 6992c-756,290 -1687,663 -2804,1105 -1116,442 -2117,791 -3001,1035 -1256,337 -2385,605 -3397,791 -1012,175 -2303,268 -3850,268zm7538 -24081c-47,-1722 -256,-3211 -617,-4456 -360,-1244 -895,-2303 -1570,-3164 -756,-942 -1722,-1675 -2897,-2175 -1175,-500 -2629,-745 -4374,-745 -1710,0 -3164,256 -4362,768 -1199,512 -2292,1245 -3269,2222 -966,1000 -1687,2106 -2199,3315 -500,1210 -814,2630 -954,4235l20242 0zm53140 -2082c0,4641 -930,8818 -2803,12540 -1873,3734 -4386,6643 -7539,8725 -2559,1617 -5165,2699 -7806,3246 -2640,546 -6002,814 -10109,814l-11668 0 0 -50744 11529 0c4758,0 8492,361 11202,1070 2711,722 5014,1699 6922,2955 3269,2152 5793,5026 7585,8597 1791,3583 2687,7852 2687,12797zm-7049 -93c0,-3898 -640,-7225 -1932,-9970 -1291,-2757 -3199,-4898 -5735,-6433 -1780,-1094 -3687,-1873 -5723,-2350 -2036,-477 -4572,-710 -7597,-710l-5118 0 0 39018 5118 0c2990,0 5596,-233 7829,-710 2246,-477 4281,-1361 6143,-2652 2326,-1582 4071,-3699 5246,-6329 1175,-2640 1769,-5932 1769,-9864zm43636 25418l-6422 0 0 -4234c-1978,1721 -3850,3036 -5630,3932 -1769,895 -3746,1349 -5922,1349 -1663,0 -3222,-268 -4688,-814 -1466,-547 -2745,-1408 -3839,-2594 -1093,-1175 -1943,-2664 -2536,-4456 -605,-1792 -907,-3979 -907,-6538l0 -24686 6421 0 0 21673c0,2013 70,3688 221,5026 152,1326 489,2489 1001,3490 523,977 1233,1686 2129,2140 907,454 2187,687 3874,687 1570,0 3234,-443 5002,-1338 1780,-896 3397,-1990 4874,-3293l0 -28385 6422 0 0 38041zm19509 838c-2536,0 -4910,-338 -7120,-1024 -2222,-686 -4048,-1408 -5502,-2187l0 -7189 337 0c547,430 1186,919 1919,1442 733,535 1710,1082 2932,1652 1082,512 2268,954 3571,1349 1303,384 2653,582 4049,582 1012,0 2094,-116 3245,-361 1152,-232 2013,-535 2583,-907 791,-523 1361,-1082 1710,-1675 349,-593 523,-1489 523,-2676 0,-1524 -407,-2675 -1221,-3455 -814,-768 -2268,-1419 -4339,-1943 -815,-209 -1885,-442 -3211,-698 -1314,-267 -2536,-558 -3653,-872 -2896,-838 -5014,-2141 -6328,-3897 -1315,-1757 -1978,-3886 -1978,-6387 0,-3420 1291,-6212 3886,-8376 2594,-2152 6026,-3234 10318,-3234 2118,0 4246,268 6375,791 2141,524 3932,1175 5386,1978l0 6864 -337 0c-1629,-1315 -3443,-2350 -5444,-3118 -2001,-756 -4025,-1140 -6061,-1140 -2094,0 -3874,442 -5317,1338 -1454,884 -2175,2222 -2175,4025 0,1593 430,2780 1280,3571 849,780 2210,1419 4083,1931 954,245 2012,489 3187,722 1164,244 2397,523 3700,837 2815,710 4932,1873 6352,3502 1419,1640 2128,3862 2128,6677 0,1629 -325,3188 -965,4642 -652,1466 -1594,2722 -2850,3769 -1361,1128 -2897,1989 -4607,2583 -1710,593 -3862,884 -6456,884zm32375 -70c-3502,0 -6236,-989 -8190,-2978 -1954,-1978 -2932,-5119 -2932,-9400l0 -21056 -4327 0 0 -5375 4327 0 0 -10958 6422 0 0 10958 11796 0 0 5375 -11796 0 0 18078c0,1931 35,3420 105,4456 69,1047 325,2024 779,2931 384,791 1012,1396 1873,1792 872,395 2036,593 3513,593 1047,0 2059,-163 3036,-477 978,-314 1687,-570 2118,-779l372 0 0 5746c-1210,349 -2431,617 -3664,803 -1245,198 -2385,291 -3432,291z"/>
 </g>
</svg>
