<?xml version="1.0" encoding="UTF-8"?>
<!DOCTYPE svg PUBLIC "-//W3C//DTD SVG 1.1//EN" "http://www.w3.org/Graphics/SVG/1.1/DTD/svg11.dtd">
<!-- Creator: CorelDRAW X7 -->
<svg xmlns="http://www.w3.org/2000/svg" xml:space="preserve" width="162mm" height="162mm" version="1.1" style="shape-rendering:geometricPrecision; text-rendering:geometricPrecision; image-rendering:optimizeQuality; fill-rule:evenodd; clip-rule:evenodd"
viewBox="0 0 162000 162000"
 xmlns:xlink="http://www.w3.org/1999/xlink">
 <defs>
  <style type="text/css">
   <![CDATA[
    .str1 {stroke:#31B0D5;stroke-width:500}
    .str0 {stroke:#373435;stroke-width:200}
    .fil2 {fill:none}
    .fil1 {fill:#5BC0DE}
    .fil0 {fill:#DC3545}
   ]]>
  </style>
 </defs>
 <g id="Camada_x0020_1">
  <metadata id="CorelCorpID_0Corel-Layer"/>
  <g id="_715863040">
   <polygon class="fil0 str0" points="29404,90813 37539,66069 55206,40904 85864,49953 122244,73237 126742,85143 116423,90831 67210,109088 55522,126590 50247,129478 29889,117788 24216,109352 "/>
   <g>
    <path class="fil1 str1" d="M8392 116927c6719,7645 3683,4191 10402,11836 25380,-30247 62171,-32254 106092,-47669 -26063,-12279 -74628,-36373 -95479,-65679 -2954,7182 2043,87326 -42,131344 16681,-28264 130648,-56173 131344,-65672 -5445,-7761 -90439,-41364 -100894,-65846 -7646,22472 -9146,104412 -10112,131518 4228,-21405 8080,-23236 11675,-31955 3129,-7898 -19775,-12105 -24673,-12337 -4377,-232 1216,-29713 1216,-29713 -12394,26296 -14702,33516 -29529,44173z"/>
    <path class="fil2 str1" d="M8482 116878c-5907,4454 -7774,967 -7038,-3264"/>
    <line class="fil2 str1" x1="8713" y1="117292" x2="7833" y2= "116325" />
   </g>
  </g>
 </g>
</svg>
