<?xml version="1.0" encoding="UTF-8"?>
<!DOCTYPE svg PUBLIC "-//W3C//DTD SVG 1.1//EN" "http://www.w3.org/Graphics/SVG/1.1/DTD/svg11.dtd">
<!-- Creator: CorelDRAW X7 -->
<svg xmlns="http://www.w3.org/2000/svg" xml:space="preserve" width="170.5mm" height="143mm" version="1.1" style="shape-rendering:geometricPrecision; text-rendering:geometricPrecision; image-rendering:optimizeQuality; fill-rule:evenodd; clip-rule:evenodd"
viewBox="0 0 170500 143000"
 xmlns:xlink="http://www.w3.org/1999/xlink">
 <defs>
  <style type="text/css">
   <![CDATA[
    .str0 {stroke:#727376;stroke-width:200}
    .fil0 {fill:none}
   ]]>
  </style>
 </defs>
 <g id="Camada_x0020_1">
  <metadata id="CorelCorpID_0Corel-Layer"/>
  <g id="_666030256">
   <path class="fil0 str0" d="M9661 106754c6719,7645 3683,4191 10402,11836 25379,-30247 62171,-32254 106092,-47669 -26063,-12279 -74628,-36372 -95479,-65679 -2954,7182 2043,87326 -42,131344 16680,-28264 130648,-56173 131343,-65672 -5444,-7761 -90439,-41364 -100894,-65846 -7645,22473 -9145,104412 -10111,131518 4228,-21405 8079,-23235 11675,-31955 3129,-7898 -19775,-12105 -24673,-12337 -4377,-232 1216,-29713 1216,-29713 -12395,26296 -14702,33516 -29529,44173z"/>
   <path class="fil0 str0" d="M9751 106706c-5907,4453 -7774,966 -7038,-3265"/>
   <line class="fil0 str0" x1="9966" y1="107147" x2="9356" y2= "106361" />
  </g>
 </g>
</svg>
