<?xml version="1.0" encoding="UTF-8"?>
<!DOCTYPE svg PUBLIC "-//W3C//DTD SVG 1.1//EN" "http://www.w3.org/Graphics/SVG/1.1/DTD/svg11.dtd">
<!-- Creator: CorelDRAW X7 -->
<svg xmlns="http://www.w3.org/2000/svg" xml:space="preserve" width="198.5mm" height="143mm" version="1.1" style="shape-rendering:geometricPrecision; text-rendering:geometricPrecision; image-rendering:optimizeQuality; fill-rule:evenodd; clip-rule:evenodd"
viewBox="0 0 198500 143000"
 xmlns:xlink="http://www.w3.org/1999/xlink">
 <defs>
  <style type="text/css">
   <![CDATA[
    .str1 {stroke:#727376;stroke-width:250}
    .str0 {stroke:#727376;stroke-width:200}
    .fil0 {fill:none}
   ]]>
  </style>
 </defs>
 <g id="Camada_x0020_1">
  <metadata id="CorelCorpID_0Corel-Layer"/>
  <g id="_842794224">
   <path class="fil0 str0" d="M23661 106754c6719,7645 3683,4191 10402,11836 25379,-30247 62171,-32254 106092,-47669 -26063,-12279 -74628,-36372 -95479,-65679 -2954,7182 2043,87326 -42,131344 16680,-28264 130648,-56173 131343,-65672 -5444,-7761 -90439,-41364 -100894,-65846 -7645,22473 -9145,104412 -10111,131518 4228,-21405 8079,-23235 11675,-31955 3129,-7898 -19775,-12105 -24673,-12337 -4377,-232 1216,-29713 1216,-29713 -12395,26296 -14702,33516 -29529,44173z"/>
   <path class="fil0 str0" d="M23751 106706c-5907,4453 -7774,966 -7038,-3265"/>
   <line class="fil0 str0" x1="23966" y1="107147" x2="23356" y2= "106361" />
  </g>
  <g id="_842792976">
   <path class="fil0 str1" d="M181290 70574c0,-5731 -941,-10624 -2840,-14662 -1899,-4055 -4704,-7203 -8434,-9461 -2618,-1608 -5423,-2754 -8417,-3456 -2994,-701 -6724,-1043 -11172,-1043l-7528 0 0 57381 7528 0c4397,0 8229,-342 11514,-1044 3302,-701 6296,-2001 9033,-3900 3422,-2327 5988,-5441 7716,-9307 1728,-3884 2600,-8725 2600,-14508z"/>
   <path class="fil0 str1" d="M191658 70711c0,6826 -1369,12968 -4123,18442 -2755,5492 -6450,9769 -11086,12832 -3764,2378 -7596,3969 -11480,4773 -3883,804 -8828,1197 -14867,1197l-17160 0 0 -74626 16955 0c6997,0 12489,530 16475,1574 3986,1061 7374,2498 10179,4346 4808,3165 8520,7390 11155,12643 2635,5269 3952,11548 3952,18819z"/>
  </g>
  <polygon class="fil0 str1" points="87762,108879 87762,43080 62715,43080 62715,34253 122765,34253 122765,43080 97719,43080 97719,108879 "/>
  <g id="_839291312">
   <path class="fil0 str1" d="M48820 84040c0,-2789 -393,-5081 -1197,-6895 -804,-1813 -2413,-3353 -4842,-4602 -1574,-838 -3285,-1369 -5132,-1608 -1848,-223 -4466,-342 -7870,-342l-11240 0 0 27407 8041 0c4328,0 7750,-205 10248,-599 2497,-393 4704,-1248 6603,-2532 1865,-1300 3217,-2771 4089,-4414 873,-1642 1300,-3780 1300,-6415z"/>
   <path class="fil0 str1" d="M45330 50302c0,-1779 -308,-3336 -906,-4636 -599,-1317 -1557,-2344 -2892,-3114 -1591,-889 -3387,-1437 -5355,-1642 -1967,-188 -4670,-291 -8143,-291l-9495 0 0 21659 11240 0c3114,0 5389,-154 6860,-479 1454,-308 2977,-958 4534,-1950 1505,-958 2583,-2224 3216,-3781 633,-1557 941,-3473 941,-5766z"/>
   <path class="fil0 str1" d="M59188 83698c0,3712 -701,6997 -2104,9837 -1403,2840 -3285,5184 -5663,7014 -2806,2207 -5817,3781 -9016,4688 -3217,924 -7357,1386 -12421,1386l-21402 0 0 -74627 19794 0c5321,0 9307,171 11959,531 2651,342 5201,1163 7647,2463 2669,1437 4619,3319 5868,5646 1232,2310 1848,5047 1848,8178 0,3507 -924,6638 -2772,9409 -1864,2772 -4431,4945 -7698,6519l0 410c4431,1198 7869,3405 10316,6587 2429,3199 3644,7185 3644,11959z"/>
  </g>
 </g>
</svg>
