<?xml version="1.0" encoding="UTF-8"?>
<!DOCTYPE svg PUBLIC "-//W3C//DTD SVG 1.1//EN" "http://www.w3.org/Graphics/SVG/1.1/DTD/svg11.dtd">
<!-- Creator: CorelDRAW X7 -->
<svg xmlns="http://www.w3.org/2000/svg" xml:space="preserve" width="590.5mm" height="196.5mm" version="1.1" style="shape-rendering:geometricPrecision; text-rendering:geometricPrecision; image-rendering:optimizeQuality; fill-rule:evenodd; clip-rule:evenodd"
viewBox="0 0 590500 196500"
 xmlns:xlink="http://www.w3.org/1999/xlink">
 <defs>
  <style type="text/css">
   <![CDATA[
    .str0 {stroke:#31B0D5;stroke-width:500}
    .str1 {stroke:#C82333;stroke-width:250}
    .fil0 {fill:none}
    .fil2 {fill:none;fill-rule:nonzero}
    .fil1 {fill:#DC3545;fill-rule:nonzero}
   ]]>
  </style>
 </defs>
 <g id="Camada_x0020_1">
  <metadata id="CorelCorpID_0Corel-Layer"/>
  <g id="_768466784">
   <path class="fil0 str0" d="M10681 107401c6718,7646 3683,4191 10401,11836 25380,-30247 62172,-32254 106093,-47669 -26063,-12278 -74628,-36372 -95479,-65679 -2954,7182 2043,87326 -42,131344 16680,-28264 130648,-56172 131343,-65671 -5444,-7762 -90439,-41365 -100894,-65847 -7645,22473 -9146,104412 -10111,131518 4228,-21405 8079,-23235 11675,-31955 3129,-7898 -19775,-12105 -24673,-12337 -4377,-232 1216,-29712 1216,-29712 -12395,26295 -14702,33515 -29529,44172z"/>
   <path class="fil0 str0" d="M10770 107353c-5907,4453 -7774,966 -7038,-3264"/>
   <line class="fil0 str0" x1="11001" y1="107766" x2="10122" y2= "106799" />
  </g>
  <path class="fil1" d="M214281 58960c0,1209 -193,2442 -580,3699 -387,1256 -967,2429 -1740,3516 -774,1088 -1765,2043 -2973,2864 -1209,822 -2635,1451 -4278,1886l0 290c1450,241 2840,652 4169,1232 1330,581 2502,1378 3517,2393 1015,1015 1837,2248 2465,3698 629,1451 943,3167 943,5149 0,2610 -544,4870 -1632,6779 -1087,1910 -2513,3469 -4278,4677 -1764,1209 -3782,2103 -6054,2683 -2272,580 -4593,870 -6961,870 -822,0 -1789,0 -2901,0 -1112,0 -2272,-36 -3480,-109 -1209,-72 -2417,-169 -3626,-290 -1208,-120 -2272,-302 -3190,-543l0 -49960c1788,-290 3867,-532 6236,-725 2368,-194 4955,-290 7758,-290 1886,0 3807,157 5765,471 1958,314 3734,918 5329,1813 1596,894 2913,2139 3952,3734 1040,1595 1559,3650 1559,6163zm-16822 34515c1547,0 3045,-181 4495,-543 1451,-363 2732,-943 3843,-1741 1112,-797 1994,-1776 2647,-2936 653,-1160 979,-2538 979,-4133 0,-1982 -399,-3578 -1196,-4786 -798,-1209 -1837,-2151 -3118,-2828 -1281,-677 -2720,-1136 -4315,-1378 -1595,-241 -3190,-362 -4785,-362l-6309 0 0 18200c338,97 822,169 1450,217 629,49 1306,97 2031,145 725,49 1474,85 2247,109 774,24 1451,36 2031,36zm-3988 -23783c821,0 1812,-24 2973,-72 1160,-49 2127,-121 2900,-218 1160,-387 2248,-858 3263,-1414 1015,-556 1922,-1208 2719,-1958 798,-749 1426,-1619 1885,-2610 460,-991 689,-2067 689,-3227 0,-1595 -302,-2912 -906,-3952 -604,-1039 -1414,-1873 -2429,-2501 -1015,-629 -2176,-1076 -3481,-1342 -1305,-266 -2634,-399 -3988,-399 -1595,0 -3057,37 -4387,109 -1329,73 -2332,182 -3009,327l0 17257 3771 0z"/>
  <path id="1" class="fil1" d="M226680 61861l5801 0 0 36255 -5801 0 0 -36255zm-1232 -11022c0,-1112 374,-2066 1124,-2864 749,-797 1704,-1196 2864,-1196 1160,0 2151,399 2973,1196 822,798 1232,1752 1232,2864 0,1112 -410,2031 -1232,2756 -822,725 -1813,1087 -2973,1087 -1160,0 -2115,-362 -2864,-1087 -750,-725 -1124,-1644 -1124,-2756z"/>
  <path id="2" class="fil1" d="M240095 61861l5656 0 0 -7179 5801 -1667 0 8846 9861 0 0 5076 -9861 0 0 20085c0,2514 314,4290 942,5330 629,1039 1692,1559 3191,1559 1256,0 2320,-133 3190,-399 870,-266 1837,-617 2901,-1052l1305 4423c-1305,629 -2732,1136 -4278,1523 -1547,387 -3215,580 -5004,580 -2948,0 -5027,-834 -6236,-2501 -1208,-1668 -1812,-4460 -1812,-8375l0 -21173 -5656 0 0 -5076z"/>
  <path id="3" class="fil1" d="M295130 95216c-1450,1160 -3275,2078 -5474,2755 -2200,677 -4532,1015 -6998,1015 -2755,0 -5148,-447 -7178,-1341 -2030,-894 -3698,-2175 -5003,-3843 -1305,-1668 -2272,-3662 -2901,-5982 -628,-2321 -942,-4931 -942,-7831 0,-6188 1377,-10901 4133,-14140 2755,-3239 6695,-4858 11819,-4858 1644,0 3287,181 4931,544 1643,362 3118,1051 4423,2066 1305,1015 2369,2453 3190,4315 822,1861 1233,4314 1233,7359 0,1596 -145,3360 -435,5294l-23276 0c0,2127 218,4012 653,5655 435,1644 1111,3034 2030,4170 918,1136 2115,2006 3589,2610 1475,604 3275,907 5402,907 1644,0 3287,-291 4931,-871 1644,-580 2876,-1256 3698,-2030l2175 4206zm-12472 -29149c-2852,0 -5136,749 -6852,2247 -1716,1499 -2743,4061 -3081,7686l17982 0c0,-3673 -701,-6248 -2103,-7722 -1402,-1474 -3383,-2211 -5946,-2211z"/>
  <path id="4" class="fil1" d="M321452 88255c0,-1450 -435,-2586 -1306,-3408 -870,-822 -1945,-1511 -3226,-2067 -1281,-556 -2683,-1087 -4206,-1595 -1523,-508 -2925,-1160 -4206,-1958 -1281,-797 -2356,-1825 -3226,-3082 -870,-1256 -1305,-2948 -1305,-5075 0,-3481 991,-6031 2972,-7650 1982,-1620 4738,-2429 8267,-2429 2610,0 4797,229 6562,689 1764,459 3299,1003 4604,1631l-1377 4786c-1112,-532 -2454,-1003 -4025,-1414 -1571,-411 -3251,-616 -5039,-616 -2127,0 -3686,362 -4677,1087 -991,725 -1487,1982 -1487,3771 0,1257 435,2235 1306,2936 870,701 1945,1330 3226,1886 1281,556 2683,1099 4206,1631 1523,532 2924,1233 4206,2103 1281,870 2356,1970 3226,3299 870,1330 1305,3082 1305,5257 0,1547 -253,2997 -761,4351 -508,1353 -1293,2514 -2357,3480 -1063,967 -2380,1728 -3951,2284 -1571,556 -3420,834 -5547,834 -2756,0 -5100,-266 -7034,-797 -1934,-532 -3553,-1161 -4858,-1886l1740 -4930c1112,628 2562,1208 4351,1740 1788,532 3601,798 5438,798 2079,0 3795,-411 5148,-1233 1354,-822 2031,-2296 2031,-4423z"/>
  <polygon id="5" class="fil1" points="369381,52725 353574,52725 353574,98116 347555,98116 347555,52725 331748,52725 331748,47359 369381,47359 "/>
  <path id="6" class="fil1" d="M399545 98116l0 -20665c0,-1886 -108,-3541 -326,-4967 -217,-1426 -616,-2611 -1196,-3553 -580,-943 -1366,-1656 -2357,-2139 -991,-484 -2284,-725 -3879,-725 -2272,0 -4327,737 -6164,2211 -1837,1474 -3021,3372 -3553,5692l0 24146 -5801 0 0 -50757 5801 0 0 18562 290 0c1257,-1498 2768,-2694 4532,-3589 1765,-894 3952,-1341 6562,-1341 2031,0 3795,229 5294,689 1498,459 2743,1269 3734,2429 991,1160 1716,2719 2175,4677 460,1957 689,4435 689,7432l0 21898 -5801 0z"/>
  <path id="7" class="fil1" d="M442399 95216c-1450,1160 -3275,2078 -5475,2755 -2199,677 -4531,1015 -6997,1015 -2755,0 -5148,-447 -7178,-1341 -2031,-894 -3698,-2175 -5004,-3843 -1305,-1668 -2272,-3662 -2900,-5982 -628,-2321 -943,-4931 -943,-7831 0,-6188 1378,-10901 4133,-14140 2756,-3239 6696,-4858 11820,-4858 1643,0 3287,181 4930,544 1644,362 3118,1051 4424,2066 1305,1015 2368,2453 3190,4315 822,1861 1233,4314 1233,7359 0,1596 -145,3360 -435,5294l-23276 0c0,2127 217,4012 652,5655 435,1644 1112,3034 2031,4170 918,1136 2115,2006 3589,2610 1474,604 3275,907 5402,907 1643,0 3287,-291 4931,-871 1643,-580 2876,-1256 3698,-2030l2175 4206zm-12472 -29149c-2852,0 -5136,749 -6852,2247 -1716,1499 -2743,4061 -3082,7686l17983 0c0,-3673 -701,-6248 -2103,-7722 -1402,-1474 -3384,-2211 -5946,-2211z"/>
  <path id="8" class="fil1" d="M453348 47359c919,-145 1946,-254 3082,-326 1136,-73 2320,-121 3553,-146 1232,-24 2441,-48 3625,-72 1185,-24 2284,-36 3300,-36 4060,0 7577,628 10550,1885 2973,1257 5426,3009 7360,5257 1933,2248 3371,4943 4314,8085 943,3142 1414,6598 1414,10369 0,3432 -447,6731 -1342,9898 -894,3166 -2308,5970 -4241,8411 -1934,2441 -4448,4399 -7541,5873 -3094,1475 -6841,2212 -11240,2212 -773,0 -1776,-12 -3009,-37 -1232,-24 -2501,-72 -3807,-145 -1305,-72 -2513,-132 -3625,-181 -1112,-48 -1910,-121 -2393,-217l0 -50830zm13705 4785c-629,0 -1318,0 -2067,0 -749,0 -1486,25 -2212,73 -725,48 -1389,97 -1994,145 -604,48 -1075,97 -1414,145l0 40606c242,48 701,85 1378,109 677,24 1378,48 2103,72 725,24 1426,49 2103,73 676,24 1136,36 1377,36 3384,0 6224,-580 8520,-1740 2297,-1160 4134,-2719 5511,-4677 1378,-1958 2357,-4206 2937,-6744 580,-2538 870,-5160 870,-7867 0,-2369 -266,-4750 -798,-7142 -531,-2393 -1450,-4556 -2755,-6490 -1305,-1934 -3058,-3517 -5257,-4749 -2200,-1233 -4967,-1850 -8302,-1850z"/>
  <path id="9" class="fil1" d="M505411 61861l0 20665c0,1886 108,3541 326,4967 217,1426 592,2611 1124,3553 532,943 1257,1656 2175,2139 919,484 2079,726 3481,726 1305,0 2465,-206 3480,-617 1015,-411 1922,-979 2719,-1704 798,-725 1499,-1559 2103,-2501 604,-943 1100,-1946 1487,-3010l0 -24218 5800 0 0 25959c0,1740 61,3541 182,5402 121,1861 326,3492 616,4894l-3988 0 -1450 -5728 -363 0c-1112,1885 -2610,3456 -4495,4713 -1886,1257 -4279,1885 -7179,1885 -1934,0 -3638,-229 -5112,-689 -1474,-459 -2707,-1269 -3698,-2429 -991,-1160 -1740,-2719 -2248,-4677 -507,-1957 -761,-4435 -761,-7432l0 -21898 5801 0z"/>
  <path id="10" class="fil1" d="M555225 88255c0,-1450 -435,-2586 -1305,-3408 -870,-822 -1946,-1511 -3227,-2067 -1281,-556 -2682,-1087 -4205,-1595 -1523,-508 -2925,-1160 -4206,-1958 -1281,-797 -2356,-1825 -3226,-3082 -871,-1256 -1306,-2948 -1306,-5075 0,-3481 991,-6031 2973,-7650 1982,-1620 4738,-2429 8266,-2429 2611,0 4798,229 6563,689 1764,459 3299,1003 4604,1631l-1378 4786c-1111,-532 -2453,-1003 -4024,-1414 -1571,-411 -3251,-616 -5039,-616 -2127,0 -3686,362 -4677,1087 -991,725 -1487,1982 -1487,3771 0,1257 435,2235 1305,2936 870,701 1946,1330 3227,1886 1281,556 2683,1099 4206,1631 1522,532 2924,1233 4205,2103 1281,870 2357,1970 3227,3299 870,1330 1305,3082 1305,5257 0,1547 -254,2997 -761,4351 -508,1353 -1293,2514 -2357,3480 -1063,967 -2381,1728 -3952,2284 -1571,556 -3420,834 -5547,834 -2755,0 -5100,-266 -7033,-797 -1934,-532 -3553,-1161 -4858,-1886l1740 -4930c1112,628 2562,1208 4351,1740 1788,532 3601,798 5438,798 2078,0 3795,-411 5148,-1233 1354,-822 2030,-2296 2030,-4423z"/>
  <path id="11" class="fil1" d="M565014 61861l5656 0 0 -7179 5801 -1667 0 8846 9861 0 0 5076 -9861 0 0 20085c0,2514 314,4290 943,5330 628,1039 1691,1559 3190,1559 1257,0 2320,-133 3190,-399 871,-266 1837,-617 2901,-1052l1305 4423c-1305,629 -2731,1136 -4278,1523 -1547,387 -3215,580 -5003,580 -2949,0 -5028,-834 -6236,-2501 -1209,-1668 -1813,-4460 -1813,-8375l0 -21173 -5656 0 0 -5076z"/>
  <path id="12" class="fil2 str1" d="M214281 58960c0,1209 -193,2442 -580,3699 -387,1256 -967,2429 -1740,3516 -774,1088 -1765,2043 -2973,2864 -1209,822 -2635,1451 -4278,1886l0 290c1450,241 2840,652 4169,1232 1330,581 2502,1378 3517,2393 1015,1015 1837,2248 2465,3698 629,1451 943,3167 943,5149 0,2610 -544,4870 -1632,6779 -1087,1910 -2513,3469 -4278,4677 -1764,1209 -3782,2103 -6054,2683 -2272,580 -4593,870 -6961,870 -822,0 -1789,0 -2901,0 -1112,0 -2272,-36 -3480,-109 -1209,-72 -2417,-169 -3626,-290 -1208,-120 -2272,-302 -3190,-543l0 -49960c1788,-290 3867,-532 6236,-725 2368,-194 4955,-290 7758,-290 1886,0 3807,157 5765,471 1958,314 3734,918 5329,1813 1596,894 2913,2139 3952,3734 1040,1595 1559,3650 1559,6163zm-16822 34515c1547,0 3045,-181 4495,-543 1451,-363 2732,-943 3843,-1741 1112,-797 1994,-1776 2647,-2936 653,-1160 979,-2538 979,-4133 0,-1982 -399,-3578 -1196,-4786 -798,-1209 -1837,-2151 -3118,-2828 -1281,-677 -2720,-1136 -4315,-1378 -1595,-241 -3190,-362 -4785,-362l-6309 0 0 18200c338,97 822,169 1450,217 629,49 1306,97 2031,145 725,49 1474,85 2247,109 774,24 1451,36 2031,36zm-3988 -23783c821,0 1812,-24 2973,-72 1160,-49 2127,-121 2900,-218 1160,-387 2248,-858 3263,-1414 1015,-556 1922,-1208 2719,-1958 798,-749 1426,-1619 1885,-2610 460,-991 689,-2067 689,-3227 0,-1595 -302,-2912 -906,-3952 -604,-1039 -1414,-1873 -2429,-2501 -1015,-629 -2176,-1076 -3481,-1342 -1305,-266 -2634,-399 -3988,-399 -1595,0 -3057,37 -4387,109 -1329,73 -2332,182 -3009,327l0 17257 3771 0z"/>
  <path id="13" class="fil2 str1" d="M226680 61861l5801 0 0 36255 -5801 0 0 -36255zm-1232 -11022c0,-1112 374,-2066 1124,-2864 749,-797 1704,-1196 2864,-1196 1160,0 2151,399 2973,1196 822,798 1232,1752 1232,2864 0,1112 -410,2031 -1232,2756 -822,725 -1813,1087 -2973,1087 -1160,0 -2115,-362 -2864,-1087 -750,-725 -1124,-1644 -1124,-2756z"/>
  <path id="14" class="fil2 str1" d="M240095 61861l5656 0 0 -7179 5801 -1667 0 8846 9861 0 0 5076 -9861 0 0 20085c0,2514 314,4290 942,5330 629,1039 1692,1559 3191,1559 1256,0 2320,-133 3190,-399 870,-266 1837,-617 2901,-1052l1305 4423c-1305,629 -2732,1136 -4278,1523 -1547,387 -3215,580 -5004,580 -2948,0 -5027,-834 -6236,-2501 -1208,-1668 -1812,-4460 -1812,-8375l0 -21173 -5656 0 0 -5076z"/>
  <path id="15" class="fil2 str1" d="M295130 95216c-1450,1160 -3275,2078 -5474,2755 -2200,677 -4532,1015 -6998,1015 -2755,0 -5148,-447 -7178,-1341 -2030,-894 -3698,-2175 -5003,-3843 -1305,-1668 -2272,-3662 -2901,-5982 -628,-2321 -942,-4931 -942,-7831 0,-6188 1377,-10901 4133,-14140 2755,-3239 6695,-4858 11819,-4858 1644,0 3287,181 4931,544 1643,362 3118,1051 4423,2066 1305,1015 2369,2453 3190,4315 822,1861 1233,4314 1233,7359 0,1596 -145,3360 -435,5294l-23276 0c0,2127 218,4012 653,5655 435,1644 1111,3034 2030,4170 918,1136 2115,2006 3589,2610 1475,604 3275,907 5402,907 1644,0 3287,-291 4931,-871 1644,-580 2876,-1256 3698,-2030l2175 4206zm-12472 -29149c-2852,0 -5136,749 -6852,2247 -1716,1499 -2743,4061 -3081,7686l17982 0c0,-3673 -701,-6248 -2103,-7722 -1402,-1474 -3383,-2211 -5946,-2211z"/>
  <path id="16" class="fil2 str1" d="M321452 88255c0,-1450 -435,-2586 -1306,-3408 -870,-822 -1945,-1511 -3226,-2067 -1281,-556 -2683,-1087 -4206,-1595 -1523,-508 -2925,-1160 -4206,-1958 -1281,-797 -2356,-1825 -3226,-3082 -870,-1256 -1305,-2948 -1305,-5075 0,-3481 991,-6031 2972,-7650 1982,-1620 4738,-2429 8267,-2429 2610,0 4797,229 6562,689 1764,459 3299,1003 4604,1631l-1377 4786c-1112,-532 -2454,-1003 -4025,-1414 -1571,-411 -3251,-616 -5039,-616 -2127,0 -3686,362 -4677,1087 -991,725 -1487,1982 -1487,3771 0,1257 435,2235 1306,2936 870,701 1945,1330 3226,1886 1281,556 2683,1099 4206,1631 1523,532 2924,1233 4206,2103 1281,870 2356,1970 3226,3299 870,1330 1305,3082 1305,5257 0,1547 -253,2997 -761,4351 -508,1353 -1293,2514 -2357,3480 -1063,967 -2380,1728 -3951,2284 -1571,556 -3420,834 -5547,834 -2756,0 -5100,-266 -7034,-797 -1934,-532 -3553,-1161 -4858,-1886l1740 -4930c1112,628 2562,1208 4351,1740 1788,532 3601,798 5438,798 2079,0 3795,-411 5148,-1233 1354,-822 2031,-2296 2031,-4423z"/>
  <polygon id="17" class="fil2 str1" points="369381,52725 353574,52725 353574,98116 347555,98116 347555,52725 331748,52725 331748,47359 369381,47359 "/>
  <path id="18" class="fil2 str1" d="M399545 98116l0 -20665c0,-1886 -108,-3541 -326,-4967 -217,-1426 -616,-2611 -1196,-3553 -580,-943 -1366,-1656 -2357,-2139 -991,-484 -2284,-725 -3879,-725 -2272,0 -4327,737 -6164,2211 -1837,1474 -3021,3372 -3553,5692l0 24146 -5801 0 0 -50757 5801 0 0 18562 290 0c1257,-1498 2768,-2694 4532,-3589 1765,-894 3952,-1341 6562,-1341 2031,0 3795,229 5294,689 1498,459 2743,1269 3734,2429 991,1160 1716,2719 2175,4677 460,1957 689,4435 689,7432l0 21898 -5801 0z"/>
  <path id="19" class="fil2 str1" d="M442399 95216c-1450,1160 -3275,2078 -5475,2755 -2199,677 -4531,1015 -6997,1015 -2755,0 -5148,-447 -7178,-1341 -2031,-894 -3698,-2175 -5004,-3843 -1305,-1668 -2272,-3662 -2900,-5982 -628,-2321 -943,-4931 -943,-7831 0,-6188 1378,-10901 4133,-14140 2756,-3239 6696,-4858 11820,-4858 1643,0 3287,181 4930,544 1644,362 3118,1051 4424,2066 1305,1015 2368,2453 3190,4315 822,1861 1233,4314 1233,7359 0,1596 -145,3360 -435,5294l-23276 0c0,2127 217,4012 652,5655 435,1644 1112,3034 2031,4170 918,1136 2115,2006 3589,2610 1474,604 3275,907 5402,907 1643,0 3287,-291 4931,-871 1643,-580 2876,-1256 3698,-2030l2175 4206zm-12472 -29149c-2852,0 -5136,749 -6852,2247 -1716,1499 -2743,4061 -3082,7686l17983 0c0,-3673 -701,-6248 -2103,-7722 -1402,-1474 -3384,-2211 -5946,-2211z"/>
  <path id="20" class="fil2 str1" d="M453348 47359c919,-145 1946,-254 3082,-326 1136,-73 2320,-121 3553,-146 1232,-24 2441,-48 3625,-72 1185,-24 2284,-36 3300,-36 4060,0 7577,628 10550,1885 2973,1257 5426,3009 7360,5257 1933,2248 3371,4943 4314,8085 943,3142 1414,6598 1414,10369 0,3432 -447,6731 -1342,9898 -894,3166 -2308,5970 -4241,8411 -1934,2441 -4448,4399 -7541,5873 -3094,1475 -6841,2212 -11240,2212 -773,0 -1776,-12 -3009,-37 -1232,-24 -2501,-72 -3807,-145 -1305,-72 -2513,-132 -3625,-181 -1112,-48 -1910,-121 -2393,-217l0 -50830zm13705 4785c-629,0 -1318,0 -2067,0 -749,0 -1486,25 -2212,73 -725,48 -1389,97 -1994,145 -604,48 -1075,97 -1414,145l0 40606c242,48 701,85 1378,109 677,24 1378,48 2103,72 725,24 1426,49 2103,73 676,24 1136,36 1377,36 3384,0 6224,-580 8520,-1740 2297,-1160 4134,-2719 5511,-4677 1378,-1958 2357,-4206 2937,-6744 580,-2538 870,-5160 870,-7867 0,-2369 -266,-4750 -798,-7142 -531,-2393 -1450,-4556 -2755,-6490 -1305,-1934 -3058,-3517 -5257,-4749 -2200,-1233 -4967,-1850 -8302,-1850z"/>
  <path id="21" class="fil2 str1" d="M505411 61861l0 20665c0,1886 108,3541 326,4967 217,1426 592,2611 1124,3553 532,943 1257,1656 2175,2139 919,484 2079,726 3481,726 1305,0 2465,-206 3480,-617 1015,-411 1922,-979 2719,-1704 798,-725 1499,-1559 2103,-2501 604,-943 1100,-1946 1487,-3010l0 -24218 5800 0 0 25959c0,1740 61,3541 182,5402 121,1861 326,3492 616,4894l-3988 0 -1450 -5728 -363 0c-1112,1885 -2610,3456 -4495,4713 -1886,1257 -4279,1885 -7179,1885 -1934,0 -3638,-229 -5112,-689 -1474,-459 -2707,-1269 -3698,-2429 -991,-1160 -1740,-2719 -2248,-4677 -507,-1957 -761,-4435 -761,-7432l0 -21898 5801 0z"/>
  <path id="22" class="fil2 str1" d="M555225 88255c0,-1450 -435,-2586 -1305,-3408 -870,-822 -1946,-1511 -3227,-2067 -1281,-556 -2682,-1087 -4205,-1595 -1523,-508 -2925,-1160 -4206,-1958 -1281,-797 -2356,-1825 -3226,-3082 -871,-1256 -1306,-2948 -1306,-5075 0,-3481 991,-6031 2973,-7650 1982,-1620 4738,-2429 8266,-2429 2611,0 4798,229 6563,689 1764,459 3299,1003 4604,1631l-1378 4786c-1111,-532 -2453,-1003 -4024,-1414 -1571,-411 -3251,-616 -5039,-616 -2127,0 -3686,362 -4677,1087 -991,725 -1487,1982 -1487,3771 0,1257 435,2235 1305,2936 870,701 1946,1330 3227,1886 1281,556 2683,1099 4206,1631 1522,532 2924,1233 4205,2103 1281,870 2357,1970 3227,3299 870,1330 1305,3082 1305,5257 0,1547 -254,2997 -761,4351 -508,1353 -1293,2514 -2357,3480 -1063,967 -2381,1728 -3952,2284 -1571,556 -3420,834 -5547,834 -2755,0 -5100,-266 -7033,-797 -1934,-532 -3553,-1161 -4858,-1886l1740 -4930c1112,628 2562,1208 4351,1740 1788,532 3601,798 5438,798 2078,0 3795,-411 5148,-1233 1354,-822 2030,-2296 2030,-4423z"/>
  <path id="23" class="fil2 str1" d="M565014 61861l5656 0 0 -7179 5801 -1667 0 8846 9861 0 0 5076 -9861 0 0 20085c0,2514 314,4290 943,5330 628,1039 1691,1559 3190,1559 1257,0 2320,-133 3190,-399 871,-266 1837,-617 2901,-1052l1305 4423c-1305,629 -2731,1136 -4278,1523 -1547,387 -3215,580 -5003,580 -2949,0 -5028,-834 -6236,-2501 -1209,-1668 -1813,-4460 -1813,-8375l0 -21173 -5656 0 0 -5076z"/>
 </g>
</svg>
