<?xml version="1.0" encoding="UTF-8"?>
<!DOCTYPE svg PUBLIC "-//W3C//DTD SVG 1.1//EN" "http://www.w3.org/Graphics/SVG/1.1/DTD/svg11.dtd">
<!-- Creator: CorelDRAW X7 -->
<svg xmlns="http://www.w3.org/2000/svg" xml:space="preserve" width="86mm" height="86mm" version="1.1" style="shape-rendering:geometricPrecision; text-rendering:geometricPrecision; image-rendering:optimizeQuality; fill-rule:evenodd; clip-rule:evenodd"
viewBox="0 0 86000 86000"
 xmlns:xlink="http://www.w3.org/1999/xlink">
 <defs>
  <style type="text/css">
   <![CDATA[
    .str0 {stroke:#C82333;stroke-width:250}
    .fil0 {fill:#DC3545}
   ]]>
  </style>
 </defs>
 <g id="Camada_x0020_1">
  <metadata id="CorelCorpID_0Corel-Layer"/>
  <path class="fil0 str0" d="M62252 31688l0 20666c0,1885 108,3541 326,4967 217,1426 592,2610 1124,3553 532,943 1257,1656 2175,2139 919,483 2079,725 3481,725 1305,0 2465,-205 3480,-616 1015,-411 1922,-979 2719,-1704 798,-725 1499,-1559 2103,-2502 604,-943 1100,-1946 1487,-3009l0 -24219 5800 0 0 25959c0,1740 61,3541 182,5402 121,1861 326,3493 616,4895l-3988 0 -1450 -5729 -363 0c-1112,1886 -2610,3457 -4495,4714 -1886,1256 -4279,1885 -7179,1885 -1934,0 -3638,-230 -5112,-689 -1474,-459 -2707,-1269 -3698,-2429 -991,-1160 -1740,-2719 -2248,-4677 -507,-1958 -761,-4435 -761,-7432l0 -21899 5801 0zm-22986 2176l725 -7614 -363 0 -2755 6961 -13197 22913 -1813 0 -13994 -22985 -2611 -6889 -362 0 1015 7541 0 34153 -5656 0 0 -50758 4496 0 15880 25959 2392 5656 145 0 2248 -5801 15155 -25814 4713 0 0 50758 -6018 0 0 -34080z"/>
 </g>
</svg>
