<?xml version="1.0" encoding="UTF-8"?>
<!DOCTYPE svg PUBLIC "-//W3C//DTD SVG 1.1//EN" "http://www.w3.org/Graphics/SVG/1.1/DTD/svg11.dtd">
<!-- Creator: CorelDRAW X7 -->
<svg xmlns="http://www.w3.org/2000/svg" xml:space="preserve" width="86mm" height="86mm" version="1.1" style="shape-rendering:geometricPrecision; text-rendering:geometricPrecision; image-rendering:optimizeQuality; fill-rule:evenodd; clip-rule:evenodd"
viewBox="0 0 86000 86000"
 xmlns:xlink="http://www.w3.org/1999/xlink">
 <defs>
  <style type="text/css">
   <![CDATA[
    .str0 {stroke:#C82333;stroke-width:250}
    .fil0 {fill:#DC3545}
   ]]>
  </style>
 </defs>
 <g id="Camada_x0020_1">
  <metadata id="CorelCorpID_0Corel-Layer"/>
  <path class="fil0 str0" d="M71424 58082c0,-1450 -435,-2586 -1305,-3408 -870,-822 -1946,-1510 -3227,-2066 -1281,-556 -2683,-1088 -4205,-1596 -1523,-507 -2925,-1160 -4206,-1957 -1281,-798 -2357,-1825 -3227,-3082 -870,-1257 -1305,-2949 -1305,-5076 0,-3480 991,-6030 2973,-7650 1982,-1619 4737,-2429 8266,-2429 2611,0 4798,230 6562,689 1765,459 3300,1003 4605,1632l-1378 4785c-1112,-531 -2453,-1003 -4024,-1414 -1571,-411 -3251,-616 -5040,-616 -2127,0 -3686,363 -4677,1088 -991,725 -1486,1982 -1486,3770 0,1257 435,2236 1305,2937 870,701 1946,1329 3227,1885 1281,556 2683,1100 4205,1632 1523,531 2925,1232 4206,2102 1281,871 2357,1970 3227,3300 870,1329 1305,3081 1305,5257 0,1547 -254,2997 -761,4350 -508,1354 -1294,2514 -2357,3481 -1064,967 -2381,1728 -3952,2284 -1571,556 -3420,834 -5547,834 -2755,0 -5100,-266 -7033,-798 -1934,-532 -3553,-1160 -4859,-1885l1741 -4931c1111,629 2562,1209 4350,1740 1789,532 3602,798 5439,798 2078,0 3794,-411 5148,-1233 1353,-821 2030,-2296 2030,-4423zm-33500 -40896l5801 0 0 33863c0,3045 -399,5680 -1196,7903 -798,2224 -1934,4049 -3408,5475 -1475,1426 -3251,2477 -5330,3154 -2078,677 -4375,1015 -6888,1015 -5995,0 -10514,-1353 -13560,-4060 -3045,-2707 -4568,-6816 -4568,-12327l0 -35023 6018 0 0 32195c0,2562 254,4725 762,6490 507,1764 1269,3190 2284,4278 1015,1087 2284,1873 3807,2356 1522,484 3299,725 5329,725 3916,0 6719,-1075 8411,-3226 1692,-2151 2538,-5692 2538,-10623l0 -32195z"/>
 </g>
</svg>
